<?xml version="1.0" encoding="utf-8"?>
<svg xmlns="http://www.w3.org/2000/svg" viewBox="110.045 79.067 270.001 329.9999" width="270.001px" height="330px" preserveAspectRatio="none"><g id="object-0"><path id="path48" style="opacity: 1; fill: rgb(42, 157, 143); fill-opacity: 1; fill-rule: nonzero; stroke-width: 1.053; stroke-dasharray: none;" d="M 336.315 190.05 C 321.127 190.05 308.815 202.362 308.815 217.55 C 308.815 232.737 321.127 245.05 336.315 245.05 C 351.503 245.05 363.815 232.737 363.815 217.55 C 363.815 202.362 351.503 190.05 336.315 190.05 Z M 336.315 205.05 C 343.219 205.05 348.815 210.646 348.815 217.55 C 348.815 224.453 343.219 230.05 336.315 230.05 C 329.412 230.05 323.815 224.453 323.815 217.55 C 323.815 210.646 329.412 205.05 336.315 205.05 Z"/><path id="path47" style="opacity: 1; fill: rgb(42, 157, 143); fill-opacity: 1; fill-rule: nonzero; stroke-width: 0.963; stroke-dasharray: none;" d="M 285.181 81.576 C 277.859 81.576 265.938 81.437 257.1 82.236 C 179.502 89.249 117.619 151.399 110.636 229.332 C 109.848 238.126 109.848 250.007 110.636 258.802 C 117.619 336.734 179.502 398.884 257.1 405.898 C 265.938 406.696 277.859 406.557 285.181 406.557 L 352.223 406.557 C 366.732 406.557 379.932 393.299 379.932 378.728 L 379.932 351.795 C 379.932 337.224 366.732 323.968 352.223 323.968 L 285.181 323.968 C 277.647 323.968 265.458 323.882 260.427 323.162 C 234.395 319.435 212.429 303.058 200.899 280.424 L 258.095 280.424 C 261.831 291.494 272.345 298.964 284.19 298.964 C 299.378 298.964 311.69 286.839 311.69 271.881 C 311.69 256.924 299.378 244.799 284.19 244.799 C 271.439 244.799 260.362 253.431 257.429 265.651 L 195.147 265.651 C 194.224 262.337 193.508 258.936 193.015 255.462 C 192.28 250.29 192.28 237.844 193.015 232.671 C 197.985 197.653 225.559 169.961 260.427 164.969 C 265.458 164.249 277.647 164.165 285.181 164.165 L 352.223 164.165 C 366.732 164.165 379.932 150.907 379.932 136.336 L 379.932 109.405 C 379.932 94.834 366.732 81.576 352.223 81.576 L 285.181 81.576 Z M 284.19 259.571 C 291.094 259.571 296.69 265.083 296.69 271.881 C 296.69 278.68 291.094 284.192 284.19 284.192 C 277.287 284.192 271.69 278.68 271.69 271.881 C 271.69 265.083 277.287 259.571 284.19 259.571 Z"/><path style="opacity: 1; fill: none; fill-opacity: 1; fill-rule: nonzero; stroke: rgb(42, 157, 143); stroke-width: 15.118; stroke-dasharray: none; stroke-opacity: 1;" d="M 190.321 242.34 C 190.321 242.34 215.503 243.228 229.11 242.463 C 236.609 242.041 241.224 240.364 248.625 231.744 C 257.559 221.339 260.928 216.39 275.904 216.739 C 290.881 217.087 315.781 216.739 315.781 216.739" id="path49"/><path id="path22" style="opacity: 1; fill: rgb(38, 70, 83); fill-opacity: 1; fill-rule: nonzero; stroke-width: 1.076; stroke-dasharray: none;" d="M 290.008 79.069 C 281.72 79.069 268.267 78.996 260.015 79.739 C 180.809 86.863 117.731 149.914 110.603 229.086 C 109.86 237.334 109.86 250.799 110.603 259.047 C 117.731 338.219 180.809 401.27 260.015 408.395 C 268.267 409.137 281.72 409.065 290.008 409.065 L 365.039 409.065 C 373.327 409.065 380.046 402.349 380.046 394.065 L 380.046 364.065 C 380.046 355.781 373.327 349.065 365.039 349.065 L 290.008 349.065 C 281.72 349.065 268.242 349.177 260.044 348.009 C 213.999 341.448 177.578 305.043 171.015 259.018 C 169.846 250.823 169.846 237.31 171.015 229.116 C 177.578 183.091 213.999 146.685 260.044 140.125 C 268.242 138.956 281.72 139.068 290.008 139.068 L 365.039 139.068 C 373.327 139.068 380.046 132.352 380.046 124.068 L 380.046 94.068 C 380.046 85.784 373.327 79.069 365.039 79.069 L 290.008 79.069 Z"/></g></svg>