<?xml version="1.0" encoding="UTF-8"?>
<!DOCTYPE svg PUBLIC "-//W3C//DTD SVG 1.1//EN" "http://www.w3.org/Graphics/SVG/1.1/DTD/svg11.dtd">
<svg xmlns="http://www.w3.org/2000/svg" version="1.1" width="223px" height="248px" style="shape-rendering:geometricPrecision; text-rendering:geometricPrecision; image-rendering:optimizeQuality; fill-rule:evenodd; clip-rule:evenodd" xmlns:xlink="http://www.w3.org/1999/xlink">
<g><path style="opacity:0" fill="#fefefe" d="M -0.5,-0.5 C 73.8333,-0.5 148.167,-0.5 222.5,-0.5C 222.5,82.1667 222.5,164.833 222.5,247.5C 148.167,247.5 73.8333,247.5 -0.5,247.5C -0.5,164.833 -0.5,82.1667 -0.5,-0.5 Z"/></g>
<g><path style="opacity:0" fill="#738787" d="M 181.5,20.5 C 157.811,20.2175 134.145,20.5509 110.5,21.5C 109.167,21.5 107.833,21.5 106.5,21.5C 108.631,20.6862 110.964,20.1862 113.5,20C 136.337,19.1704 159.004,19.337 181.5,20.5 Z"/></g>
<g><path style="opacity:1" fill="#0e544f" d="M 181.5,20.5 C 181.833,20.5 182.167,20.5 182.5,20.5C 182.973,21.9063 183.973,22.573 185.5,22.5C 186.315,23.4293 187.148,24.4293 188,25.5C 188.5,32.4921 188.666,39.4921 188.5,46.5C 186.811,51.3607 183.478,54.8607 178.5,57C 156.167,57.3333 133.833,57.6667 111.5,58C 74.6091,68.5796 57.7758,93.0796 61,131.5C 67.7772,160.279 85.6106,177.446 114.5,183C 134.831,183.5 155.164,183.667 175.5,183.5C 181.006,185.005 185.006,188.338 187.5,193.5C 186.028,201.015 184.694,208.682 183.5,216.5C 182.127,216.343 180.793,216.51 179.5,217C 180.167,217.333 180.833,217.667 181.5,218C 155.502,218.5 129.502,218.667 103.5,218.5C 103.082,217.778 102.416,217.278 101.5,217C 101.833,216.667 102.167,216.333 102.5,216C 95.319,215.066 88.319,213.566 81.5,211.5C 79.847,211.34 78.5137,210.674 77.5,209.5C 76.7407,207.569 75.4074,206.069 73.5,205C 73.8333,204.667 74.1667,204.333 74.5,204C 73.552,203.517 72.552,203.351 71.5,203.5C 71.3068,199.551 70.8068,199.551 70,203.5C 68.742,200.059 66.242,198.726 62.5,199.5C 62.7229,196.886 61.5562,195.219 59,194.5C 58.3162,193.216 58.4829,192.049 59.5,191C 57.8707,190.415 56.3707,189.581 55,188.5C 53.6996,189.452 52.533,189.452 51.5,188.5C 50.846,186.885 50.346,185.218 50,183.5C 49.6667,183.833 49.3333,184.167 49,184.5C 47.172,183.339 45.672,181.839 44.5,180C 44.6448,179.228 44.9781,178.561 45.5,178C 43.5859,175.383 41.5859,172.883 39.5,170.5C 37.7144,165.241 34.7144,160.907 30.5,157.5C 28.0541,153.241 26.7208,148.574 26.5,143.5C 24.2644,129.563 23.931,115.563 25.5,101.5C 25.9926,99.1944 26.3259,96.861 26.5,94.5C 33.7393,66.7084 50.0726,46.0417 75.5,32.5C 85.9916,30.3486 96.4916,27.3486 107,23.5C 109.146,24.881 110.313,24.2144 110.5,21.5C 134.145,20.5509 157.811,20.2175 181.5,20.5 Z"/></g>
<g><path style="opacity:0" fill="#a3adad" d="M 182.5,20.5 C 184.027,20.427 185.027,21.0937 185.5,22.5C 183.973,22.573 182.973,21.9063 182.5,20.5 Z"/></g>
<g><path style="opacity:1" fill="#2f5a5a" d="M 106.5,21.5 C 107.833,21.5 109.167,21.5 110.5,21.5C 110.313,24.2144 109.146,24.881 107,23.5C 96.4916,27.3486 85.9916,30.3486 75.5,32.5C 84.8149,26.2818 95.1483,22.6151 106.5,21.5 Z"/></g>
<g><path style="opacity:1" fill="#74b1a3" d="M 182.5,69.5 C 181.4,70.5585 180.066,71.3918 178.5,72C 157.169,72.5 135.836,72.6666 114.5,72.5C 134.663,71.6681 154.996,71.1681 175.5,71C 177.677,69.7978 180.011,69.2978 182.5,69.5 Z"/></g>
<g><path style="opacity:0" fill="#859996" d="M 26.5,94.5 C 26.3259,96.861 25.9926,99.1944 25.5,101.5C 25.1667,101.5 24.8333,101.5 24.5,101.5C 24.4095,98.8478 25.0762,96.5145 26.5,94.5 Z"/></g>
<g><path style="opacity:1" fill="#48ac99" d="M 188.5,46.5 C 188.817,52.9092 188.317,59.2425 187,65.5C 185.629,67.0414 184.129,68.3747 182.5,69.5C 180.011,69.2978 177.677,69.7978 175.5,71C 154.996,71.1681 134.663,71.6681 114.5,72.5C 98.4214,75.1447 86.5881,83.8114 79,98.5C 76.7239,103.938 75.5572,109.605 75.5,115.5C 83.84,115.666 92.1733,115.5 100.5,115C 104.15,111.419 107.816,107.752 111.5,104C 113.713,102.384 116.047,101.217 118.5,100.5C 128.172,100.666 137.839,100.5 147.5,100C 148.252,99.3292 148.586,98.4959 148.5,97.5C 151.121,91.5123 155.787,88.5123 162.5,88.5C 168.004,88.3579 172.504,90.3579 176,94.5C 179.888,100.37 180.554,106.703 178,113.5C 174.922,117.109 171.088,119.442 166.5,120.5C 162.802,120.448 159.135,120.114 155.5,119.5C 151.349,117.513 148.349,114.346 146.5,110C 138.167,109.333 129.833,109.333 121.5,110C 116.934,112.227 113.268,115.56 110.5,120C 108.833,121 107.167,122 105.5,123C 95.5657,124.395 85.5657,124.895 75.5,124.5C 75.6159,127.86 75.9492,131.193 76.5,134.5C 89.8333,134.5 103.167,134.5 116.5,134.5C 118.417,127.091 123.25,123.091 131,122.5C 146.563,126.389 150.563,135.389 143,149.5C 136.497,155.124 129.331,155.957 121.5,152C 119.833,149.667 118.167,147.333 116.5,145C 104.819,144.167 93.1524,144.334 81.5,145.5C 88.8739,157.687 99.5405,165.187 113.5,168C 133.833,168.333 154.167,168.667 174.5,169C 177.382,169.272 180.049,170.106 182.5,171.5C 182.643,173.262 182.309,174.929 181.5,176.5C 181.667,176.833 181.833,177.167 182,177.5C 183.185,175.441 184.352,175.274 185.5,177C 186.517,179.787 186.684,182.62 186,185.5C 182.851,183.638 179.351,182.971 175.5,183.5C 155.164,183.667 134.831,183.5 114.5,183C 85.6106,177.446 67.7772,160.279 61,131.5C 57.7758,93.0796 74.6091,68.5796 111.5,58C 133.833,57.6667 156.167,57.3333 178.5,57C 183.478,54.8607 186.811,51.3607 188.5,46.5 Z"/></g>
<g><path style="opacity:0" fill="#87bab0" d="M 148.5,97.5 C 148.586,98.4959 148.252,99.3292 147.5,100C 137.839,100.5 128.172,100.666 118.5,100.5C 127.658,99.6701 136.991,99.1701 146.5,99C 147.044,98.2828 147.711,97.7828 148.5,97.5 Z"/></g>
<g><path style="opacity:1" fill="#f7faf9" d="M 158.5,98.5 C 162.839,97.8461 166.673,98.8461 170,101.5C 171.218,109.615 167.718,113.115 159.5,112C 154.588,107.797 154.255,103.297 158.5,98.5 Z"/></g>
<g><path style="opacity:1" fill="#a0c5bd" d="M 155.5,119.5 C 159.135,120.114 162.802,120.448 166.5,120.5C 162.71,121.902 159.044,121.569 155.5,119.5 Z"/></g>
<g><path style="opacity:0" fill="#476463" d="M 24.5,101.5 C 24.8333,101.5 25.1667,101.5 25.5,101.5C 23.931,115.563 24.2644,129.563 26.5,143.5C 22.1869,129.797 21.5203,115.797 24.5,101.5 Z"/></g>
<g><path style="opacity:1" fill="#f8faf9" d="M 128.5,132.5 C 136.505,131.342 139.339,134.675 137,142.5C 132.664,146.728 128.664,146.395 125,141.5C 123.665,137.392 124.832,134.392 128.5,132.5 Z"/></g>
<g><path style="opacity:1" fill="#54a699" d="M 182.5,171.5 C 184.934,172.771 186.434,174.771 187,177.5C 188.304,183.423 188.804,189.423 188.5,195.5C 187.662,195.158 187.328,194.492 187.5,193.5C 185.006,188.338 181.006,185.005 175.5,183.5C 179.351,182.971 182.851,183.638 186,185.5C 186.684,182.62 186.517,179.787 185.5,177C 184.352,175.274 183.185,175.441 182,177.5C 181.833,177.167 181.667,176.833 181.5,176.5C 182.309,174.929 182.643,173.262 182.5,171.5 Z"/></g>
<g><path style="opacity:1" fill="#2a5755" d="M 30.5,157.5 C 34.7144,160.907 37.7144,165.241 39.5,170.5C 41.5859,172.883 43.5859,175.383 45.5,178C 44.9781,178.561 44.6448,179.228 44.5,180C 45.672,181.839 47.172,183.339 49,184.5C 49.3333,184.167 49.6667,183.833 50,183.5C 50.346,185.218 50.846,186.885 51.5,188.5C 52.533,189.452 53.6996,189.452 55,188.5C 56.3707,189.581 57.8707,190.415 59.5,191C 58.4829,192.049 58.3162,193.216 59,194.5C 61.5562,195.219 62.7229,196.886 62.5,199.5C 66.242,198.726 68.742,200.059 70,203.5C 70.8068,199.551 71.3068,199.551 71.5,203.5C 72.552,203.351 73.552,203.517 74.5,204C 74.1667,204.333 73.8333,204.667 73.5,205C 75.4074,206.069 76.7407,207.569 77.5,209.5C 54.8393,198.505 39.1726,181.172 30.5,157.5 Z"/></g>
<g><path style="opacity:1" fill="#3f6363" d="M 81.5,211.5 C 88.319,213.566 95.319,215.066 102.5,216C 102.167,216.333 101.833,216.667 101.5,217C 102.416,217.278 103.082,217.778 103.5,218.5C 95.5609,217.741 88.2276,215.408 81.5,211.5 Z"/></g>
<g><path style="opacity:1" fill="#285152" d="M 187.5,193.5 C 187.328,194.492 187.662,195.158 188.5,195.5C 188.666,201.509 188.499,207.509 188,213.5C 187.208,216.106 185.708,218.106 183.5,219.5C 161.545,220.478 139.545,220.812 117.5,220.5C 112.647,220.187 107.98,219.521 103.5,218.5C 129.502,218.667 155.502,218.5 181.5,218C 180.833,217.667 180.167,217.333 179.5,217C 180.793,216.51 182.127,216.343 183.5,216.5C 184.694,208.682 186.028,201.015 187.5,193.5 Z"/></g>
<g><path style="opacity:0" fill="#b9bdbe" d="M 183.5,219.5 C 183.389,220.117 183.056,220.617 182.5,221C 160.663,221.829 138.996,221.663 117.5,220.5C 139.545,220.812 161.545,220.478 183.5,219.5 Z"/></g>
</svg>
